<svg viewBox="0 0 1024 1024" version="1.1" xmlns="http://www.w3.org/2000/svg" width="16px" height="16px">
    <path d="M356.139 673.4l217.877-61.866-155.625-154.654-62.251 216.519zM938.048 249.733l-155.629-154.662-342.375 340.247 155.625 154.661 342.378-340.246zM892.695 822.49c0 53.763-43.577 97.336-97.337 97.336h-584.076c-53.763 0-97.353-43.573-97.353-97.336v-584.074c0-53.763 43.586-97.349 97.353-97.349h389.374l97.356-97.345h-519.179c-89.6 0-162.243 72.64-162.243 162.239v648.977c0 89.6 72.645 162.239 162.243 162.239h648.966c89.606 0 162.251-72.64 162.251-162.239v-519.174l-97.356 97.349v389.377h0.003zM1010.37 119.814l-97.263-96.663c-16.116-16.017-43.121-15.151-60.311 1.927l-46.683 46.402 155.624 154.654 46.691-46.397c17.19-17.076 18.059-43.913 1.943-59.923v0z"
          ></path>
</svg>
