<svg viewBox="0 0 1024 1024" version="1.1" xmlns="http://www.w3.org/2000/svg" width="24px" height="24px">
    <path d="M512 0C229.376 0 0 229.376 0 512s229.376 512 512 512 512-229.376 512-512S794.624 0 512 0zM215.552 229.376c20.992-18.944 45.056-30.208 73.216-30.72 21.504-1.024 41.472 5.12 60.416 15.872 36.864 20.48 73.216 42.496 111.104 60.416 30.72 14.848 29.696 28.672 5.12 47.616-38.4 29.696-79.36 35.328-122.88 12.8-41.472-21.504-81.408-46.08-122.88-67.072-24.576-12.288-21.504-23.552-4.096-38.912z m-85.504 158.72c4.096-24.064 10.752-35.84 37.888-19.968 71.68 41.472 144.896 79.872 217.088 120.832 35.328 19.968 54.784 50.688 56.832 92.672-2.048 16.896 2.048 38.912-14.848 48.64-14.336 8.192-27.136-8.704-39.936-15.872-66.048-35.84-132.608-71.68-197.632-109.056-47.104-27.136-67.584-70.144-59.392-117.248zM423.424 906.24c-26.624-9.216-48.128-24.064-62.976-48.64-11.776-18.432-16.384-38.4-16.384-60.416 0-41.984 0.512-84.48-2.56-126.464-2.56-34.304 10.24-39.936 38.912-28.16 44.544 18.432 70.144 51.2 71.68 100.352 1.536 46.592 0.512 93.696 3.072 140.288 1.536 27.648-9.728 30.72-31.744 23.04z m61.952-498.688c-13.312-10.24-34.304-17.92-33.792-37.888 0.512-16.384 21.504-18.944 33.792-26.112 64.512-38.4 129.536-76.8 195.072-113.664 47.104-26.624 94.208-22.016 130.56 8.704 18.432 15.872 25.088 27.648-2.048 42.496-72.192 40.448-143.36 83.456-215.04 124.416-34.816 20.48-71.68 21.504-108.544 2.048z m118.272 494.592c-22.528 8.192-36.352 8.704-36.352-22.528 0.512-82.944-2.56-165.888-3.072-248.32-0.512-40.448 16.896-72.704 52.224-95.232 15.36-6.656 32.768-20.992 49.664-11.264 13.824 8.192 5.632 28.16 6.144 42.496 2.048 75.264 3.584 150.528 3.584 225.792-0.512 53.76-27.648 92.16-72.192 109.056z m243.712-386.048c-36.864 20.992-73.728 40.96-109.056 64.512-28.672 18.944-39.936 10.752-43.52-19.968-5.632-48.128 10.24-86.528 51.712-111.616 39.936-24.576 81.408-46.08 120.832-71.168 23.552-14.848 31.744-6.656 35.84 16.384 5.12 27.648 2.56 53.76-11.264 78.848-10.24 18.432-25.6 32.256-44.544 43.008z"
          fill="#333" p-id="4358"></path>
</svg>
