<svg viewBox="0 0 1024 1024" version="1.1" xmlns="http://www.w3.org/2000/svg" fill="#ffffff" width="100px" height="100px">
    <path d="M12.8 845.312c0 67.072 56.832 118.272 131.584 118.272h735.232c74.752 0 131.584-51.2 131.584-118.272V335.872H12.8v509.44zM691.2 512c13.312-11.776 30.72-15.36 43.52-4.096l131.584 98.304c7.68 3.584 12.8 11.264 13.312 19.456-1.024 8.192-4.096 16.384-8.704 23.552l-131.584 114.176c-12.8 10.24-30.72 10.24-43.52 0-13.312-11.776-13.312-31.232 0-39.424l105.472-90.624-105.472-82.432c-13.824-11.776-17.92-27.136-4.608-38.912z m-143.872 0c8.704-15.36 26.112-19.456 43.52-11.776 17.408 7.68 22.016 23.552 13.312 39.424l-131.584 212.48c-6.144 8.704-15.872 14.336-26.112 15.36-4.096 0-13.312 0-17.408-4.096-13.312-7.168-22.016-22.528-13.312-38.912l131.584-212.48z m-258.048-7.68c13.312-10.752 32.768-9.216 43.52 3.584 9.728 9.216 10.24 25.088 1.024 34.816-1.536 1.536-3.072 3.072-5.12 4.096l-105.472 78.336 105.472 90.624c10.752 8.192 13.312 23.04 5.12 34.304 0 0 0 0.512-0.512 0.512-1.536 1.536-2.56 3.072-4.608 4.608-12.8 10.24-30.72 10.24-43.52 0L153.6 641.024c-6.144-6.144-9.728-14.848-8.704-23.552 0-3.072 4.096-7.168 13.312-14.848l131.072-98.304zM144.384 60.416c-74.752 0-131.584 51.2-131.584 118.272V296.96h998.4V178.688c0-67.072-56.832-118.272-131.584-118.272H144.384z m88.064 157.696H144.384V138.752h88.064v79.36z m175.104 0H320V138.752h88.064v79.36z m175.616 0H495.616V138.752H583.68v78.848h-0.512z"
    ></path>
</svg>
